<?xml version="1.0" standalone="no"?>
<!DOCTYPE svg PUBLIC "-//W3C//DTD SVG 20010904//EN"
 "http://www.w3.org/TR/2001/REC-SVG-20010904/DTD/svg10.dtd">
<svg version="1.0" xmlns="http://www.w3.org/2000/svg"
 width="300.000000pt" height="200.000000pt" viewBox="0 0 300.000000 200.000000"
 preserveAspectRatio="xMidYMid meet">

<g transform="translate(0.000000,200.000000) scale(0.100000,-0.100000)"
fill="#000000" stroke="none">
<path d="M2482 1778 c-18 -9 -22 -17 -17 -37 5 -20 4 -23 -8 -13 -21 18 -53 9
-76 -20 -23 -28 -19 -38 15 -38 32 0 35 -10 17 -61 -15 -41 -15 -47 2 -82 10
-21 15 -40 12 -43 -3 -3 -8 4 -12 15 -4 15 -15 21 -34 21 -15 0 -32 5 -39 12
-9 9 -12 8 -12 -4 0 -8 7 -21 15 -28 12 -10 12 -15 0 -34 -17 -25 -9 -42 11
-25 9 7 24 5 51 -6 21 -9 50 -15 65 -13 28 3 72 -28 62 -43 -3 -5 -10 -7 -15
-4 -14 9 -11 -11 4 -23 8 -7 18 -7 27 -2 19 12 30 12 30 1 0 -5 -11 -12 -24
-15 -14 -3 -31 -20 -40 -38 -20 -40 -14 -46 16 -16 20 20 31 23 85 20 38 -1
64 2 69 9 11 19 -19 30 -37 13 -15 -13 -18 -13 -33 2 -10 9 -15 23 -12 30 3 7
-4 16 -15 19 -10 4 -17 11 -14 16 4 5 14 5 27 -2 21 -11 108 -4 108 9 -1 4
-29 27 -62 52 -40 29 -64 55 -69 73 -9 34 1 34 35 0 19 -19 25 -21 20 -8 -5
13 -4 16 4 11 7 -4 12 -13 12 -20 0 -8 11 -21 25 -30 14 -9 25 -24 26 -34 0
-14 2 -14 9 3 7 17 9 16 10 -10 l2 -30 8 30 8 30 1 -34 c0 -19 4 -31 8 -27 9
8 21 179 13 186 -3 3 -11 18 -18 33 -18 41 -75 116 -89 117 -7 0 -27 9 -45 20
-35 21 -68 26 -68 10 0 -5 -9 -10 -21 -10 -15 0 -19 5 -15 15 3 8 4 15 3 14
-1 0 -12 -5 -25 -11z m23 -58 c3 -5 1 -10 -4 -10 -6 0 -11 5 -11 10 0 6 2 10
4 10 3 0 8 -4 11 -10z m232 -232 c-3 -8 -6 -5 -6 6 -1 11 2 17 5 13 3 -3 4
-12 1 -19z m-347 -18 c0 -5 -4 -10 -10 -10 -5 0 -10 5 -10 10 0 6 5 10 10 10
6 0 10 -4 10 -10z"/>
<path d="M2360 1645 c0 -8 6 -15 14 -15 8 0 17 -6 19 -12 3 -7 6 -1 6 15 1 21
-4 27 -19 27 -11 0 -20 -7 -20 -15z"/>
<path d="M2152 1476 c-8 -19 -8 -27 2 -35 9 -8 12 -2 13 24 1 41 0 43 -15 11z"/>
<path d="M2832 1474 c3 -16 3 -23 1 -16 -7 21 -25 13 -21 -10 4 -31 26 -34 39
-4 10 20 9 28 -6 42 -17 17 -17 16 -13 -12z"/>
<path d="M2263 1428 c-7 -7 -9 -19 -5 -25 15 -23 84 -63 116 -67 19 -2 44 -9
56 -16 25 -13 80 -4 80 13 0 20 -57 39 -104 34 -31 -2 -47 0 -50 10 -3 7 -13
13 -23 13 -9 0 -27 12 -38 26 -17 22 -23 24 -32 12z"/>
<path d="M2793 1383 c-24 -16 -33 -73 -13 -73 14 0 62 52 55 59 -3 3 -17 -8
-31 -24 l-24 -30 21 38 c25 44 23 51 -8 30z"/>
<path d="M2180 1360 c-8 -27 -5 -39 12 -43 14 -4 16 -2 10 6 -5 7 -12 19 -15
27 -3 8 -6 13 -7 10z"/>
<path d="M2703 1263 c-16 -23 -10 -43 11 -43 17 0 39 26 43 49 4 25 -36 21
-54 -6z m46 -7 c-2 -2 -15 -9 -29 -15 -24 -11 -24 -11 -6 3 16 13 49 24 35 12z"/>
<path d="M2243 1265 c4 -30 16 -45 35 -45 15 1 15 2 1 13 -8 7 -21 21 -27 32
l-12 20 3 -20z"/>
<path d="M2341 1198 c-1 -10 6 -18 15 -18 11 0 14 -5 10 -16 -5 -12 -2 -15 11
-10 9 4 19 2 23 -4 4 -6 14 -2 26 11 l19 21 -32 -7 c-21 -4 -33 -3 -33 4 0 6
-6 11 -14 11 -8 0 -17 6 -19 13 -3 7 -6 5 -6 -5z"/>
<path d="M2582 1198 c-4 -3 -16 -8 -27 -10 -18 -4 -17 -6 7 -18 31 -15 93 -5
67 11 -9 6 -10 9 -1 9 6 0 12 4 12 9 0 10 -47 10 -58 -1z"/>
<path d="M2480 1175 c0 -7 -8 -19 -17 -25 -17 -11 -17 -11 0 -6 9 3 17 2 17
-2 0 -4 8 -8 19 -8 13 0 17 5 13 16 -5 13 -3 13 14 1 19 -15 19 -14 0 5 -13
13 -20 15 -23 7 -8 -21 -22 -15 -16 7 3 11 3 20 -1 20 -3 0 -6 -7 -6 -15z"/>
<path d="M2238 983 c138 -2 366 -2 505 0 138 1 25 2 -253 2 -278 0 -391 -1
-252 -2z"/>
<path d="M1451 724 c-31 -39 -26 -51 5 -14 20 23 30 28 38 20 8 -9 3 -19 -21
-39 -29 -24 -33 -33 -33 -78 0 -34 5 -55 16 -64 24 -20 35 6 32 77 -2 40 2 67
11 78 11 13 11 19 1 31 -17 21 -25 19 -49 -11z m29 -109 c0 -42 -3 -55 -15
-55 -12 0 -15 13 -15 55 0 42 3 55 15 55 12 0 15 -13 15 -55z"/>
<path d="M320 670 c-24 -24 -25 -33 -5 -50 14 -11 14 -15 -2 -32 -17 -19 -17
-20 2 -34 39 -29 105 -6 105 37 0 21 -37 59 -57 59 -19 0 -12 -9 19 -24 33
-17 35 -53 4 -67 -31 -15 -77 -4 -70 16 4 10 15 12 35 8 38 -7 37 9 -1 24 -38
14 -43 60 -7 67 12 3 31 7 42 9 12 3 7 5 -12 6 -21 1 -40 -6 -53 -19z"/>
<path d="M456 674 c-3 -9 -6 -35 -6 -59 0 -65 7 -75 50 -75 36 0 71 23 56 37
-3 3 -6 1 -6 -5 0 -7 -17 -12 -45 -12 l-45 0 0 55 0 55 40 0 c22 0 40 5 40 10
0 17 -77 12 -84 -6z"/>
<path d="M602 674 c-16 -11 -22 -25 -22 -53 0 -65 66 -103 115 -67 16 12 17
16 6 30 -7 9 -27 16 -43 16 -23 0 -29 4 -26 18 2 12 12 16 33 15 28 -3 29 -2
8 8 -28 15 -53 5 -53 -20 0 -24 17 -36 49 -36 36 0 37 -22 1 -30 -45 -10 -80
16 -80 59 0 40 18 57 68 67 l37 7 -35 1 c-20 0 -46 -6 -58 -15z"/>
<path d="M742 678 c-18 -18 -15 -113 4 -129 13 -10 17 -10 24 1 7 12 13 12 34
0 14 -7 29 -10 32 -7 4 4 -2 10 -12 14 -10 4 -27 16 -36 28 l-17 20 -1 -22 c0
-14 -6 -23 -15 -23 -12 0 -15 13 -15 56 l0 55 43 -3 c41 -3 42 -4 42 -38 0
-30 24 -92 25 -64 0 5 -5 15 -11 21 -8 8 -8 17 0 32 23 42 -62 94 -97 59z"/>
<path d="M886 674 c-8 -20 -8 -98 0 -118 8 -21 77 -22 94 -1 7 9 10 18 6 22
-3 3 -6 1 -6 -5 0 -7 -17 -12 -45 -12 l-45 0 0 55 0 55 40 0 c22 0 40 5 40 10
0 17 -77 12 -84 -6z"/>
<path d="M1010 675 c-15 -18 -6 -45 15 -45 10 0 15 -10 15 -34 0 -43 23 -65
45 -43 8 9 15 28 15 43 0 15 7 32 16 39 11 8 14 19 10 33 -6 19 -15 22 -55 22
-31 0 -53 -5 -61 -15z m110 -20 c0 -8 -9 -15 -20 -15 -17 0 -20 -7 -20 -40 0
-29 -4 -40 -15 -40 -11 0 -15 11 -15 40 0 33 -3 40 -20 40 -11 0 -20 7 -20 15
0 12 13 15 55 15 42 0 55 -3 55 -15z"/>
<path d="M1182 677 c-15 -17 -53 -109 -48 -114 2 -2 14 21 27 51 17 43 28 56
44 56 17 0 25 -11 38 -52 18 -58 15 -68 -13 -50 -24 15 -50 16 -50 2 0 -5 -7
-10 -15 -10 -8 0 -15 -4 -15 -10 0 -15 11 -12 32 7 17 15 19 15 36 0 42 -38
62 -2 36 64 -27 70 -48 86 -72 56z"/>
<path d="M1302 678 c-27 -27 -10 -138 20 -138 4 0 8 5 8 10 0 6 -7 10 -15 10
-12 0 -15 13 -15 55 l0 55 39 0 c48 0 67 -19 51 -50 -9 -16 -9 -25 -1 -33 15
-15 14 -27 -3 -27 -8 0 -21 9 -29 21 -9 12 -18 16 -21 10 -7 -11 31 -51 50
-51 17 0 25 29 14 50 -7 13 -7 21 0 25 30 19 -13 75 -58 75 -15 0 -33 -5 -40
-12z"/>
<path d="M1562 678 c-15 -19 -54 -120 -43 -114 5 3 17 28 27 56 14 39 23 50
40 50 17 0 26 -10 38 -47 20 -57 20 -63 1 -63 -8 0 -15 5 -15 10 0 6 -11 10
-25 10 -14 0 -25 -4 -25 -10 0 -5 -7 -10 -15 -10 -8 0 -15 -4 -15 -10 0 -15
16 -12 30 5 16 19 29 19 52 -2 17 -15 20 -15 28 -3 14 22 12 40 -13 90 -23 47
-46 60 -65 38z"/>
<path d="M1780 681 c0 -6 18 -11 45 -11 34 0 47 -5 55 -19 26 -49 -3 -91 -63
-91 -21 0 -37 -5 -37 -11 0 -20 83 -3 102 21 24 29 23 73 -1 94 -23 21 -101
34 -101 17z"/>
<path d="M1940 680 c0 -5 18 -10 40 -10 22 0 40 5 40 10 0 6 -18 10 -40 10
-22 0 -40 -4 -40 -10z"/>
<path d="M1763 615 c0 -33 2 -45 4 -27 2 18 2 45 0 60 -2 15 -4 0 -4 -33z"/>
<path d="M1923 615 c0 -33 2 -45 4 -27 2 18 2 45 0 60 -2 15 -4 0 -4 -33z"/>
<path d="M2023 657 c-4 -8 -19 -17 -33 -20 -25 -4 -25 -4 3 -6 35 -1 38 -31 2
-31 -14 0 -25 -4 -25 -9 0 -5 12 -6 28 -2 17 5 27 14 27 27 1 10 4 25 9 32 4
7 6 16 3 18 -3 3 -9 -1 -14 -9z"/>
<path d="M770 633 c0 -7 7 -13 15 -13 8 0 15 6 15 13 0 8 -7 14 -15 14 -8 0
-15 -6 -15 -14z"/>
<path d="M1343 643 c-18 -7 -16 -23 2 -23 8 0 15 7 15 15 0 8 -1 15 -2 14 -2
0 -9 -3 -15 -6z"/>
<path d="M518 633 c31 -6 29 -33 -3 -33 -14 0 -25 -4 -25 -9 0 -5 12 -6 28 -2
36 10 38 46 2 47 -22 1 -22 0 -2 -3z"/>
<path d="M948 633 c31 -6 29 -33 -3 -33 -14 0 -25 -4 -25 -8 0 -5 14 -7 31 -4
24 4 29 9 27 26 -2 15 -11 21 -28 22 -22 1 -22 0 -2 -3z"/>
<path d="M1581 624 c0 -11 3 -14 6 -6 3 7 2 16 -1 19 -3 4 -6 -2 -5 -13z"/>
<path d="M1810 611 c0 -24 3 -28 20 -24 13 3 20 14 20 29 0 17 -6 24 -20 24
-15 0 -20 -7 -20 -29z m30 4 c0 -8 -4 -15 -10 -15 -5 0 -10 7 -10 15 0 8 5 15
10 15 6 0 10 -7 10 -15z"/>
<path d="M1195 620 c-3 -5 -1 -10 4 -10 6 0 11 5 11 10 0 6 -2 10 -4 10 -3 0
-8 -4 -11 -10z"/>
<path d="M1940 550 c0 -5 18 -10 40 -10 22 0 40 5 40 10 0 6 -18 10 -40 10
-22 0 -40 -4 -40 -10z"/>
<path d="M1352 497 c-12 -13 -22 -27 -22 -32 0 -5 -10 -19 -21 -31 -30 -32
-28 -73 5 -101 36 -31 62 -29 97 6 36 37 37 55 0 91 -25 26 -26 30 -13 44 13
12 13 18 2 30 -17 21 -23 20 -48 -7z m25 -24 c-15 -16 -14 -18 14 -35 26 -16
30 -23 27 -55 -2 -29 -10 -41 -30 -53 -25 -13 -31 -13 -55 0 -23 13 -28 23
-28 55 0 30 5 42 21 50 11 5 19 16 16 23 -6 19 29 55 42 42 7 -7 5 -15 -7 -27z"/>
<path d="M1342 408 c-25 -25 0 -64 32 -52 21 8 21 50 0 58 -20 8 -18 8 -32 -6z
m38 -24 c0 -8 -9 -14 -20 -14 -22 0 -28 26 -7 33 16 6 27 -1 27 -19z"/>
<path d="M1892 478 c-35 -36 -42 -50 -42 -84 0 -68 56 -104 108 -68 18 12 22
25 22 63 0 53 -18 79 -38 59 -7 -7 -12 -27 -12 -45 0 -18 -4 -33 -10 -33 -22
0 -10 64 17 92 24 26 26 30 11 44 -14 14 -19 11 -56 -28z m36 -13 c-23 -20
-28 -32 -28 -70 0 -39 3 -46 18 -43 12 2 18 15 20 46 2 28 8 42 18 42 20 0 19
-78 -3 -102 -37 -41 -93 -5 -93 61 0 31 4 40 22 44 12 4 19 9 15 13 -4 4 3 18
15 31 15 17 25 20 32 12 8 -7 3 -17 -16 -34z"/>
<path d="M332 448 c-7 -7 -12 -35 -12 -63 0 -59 12 -75 56 -75 35 0 60 22 48
42 -10 16 -12 58 -2 64 4 3 8 10 8 17 0 6 -6 3 -14 -8 -8 -12 -20 -16 -35 -12
-11 3 -21 1 -21 -4 0 -5 11 -9 25 -9 16 0 25 -6 25 -15 0 -9 -9 -15 -25 -15
-14 0 -25 -4 -25 -8 0 -4 12 -8 27 -7 14 0 28 -6 30 -12 3 -9 -9 -13 -41 -13
l-46 0 0 55 0 55 40 0 c22 0 40 5 40 10 0 14 -64 12 -78 -2z"/>
<path d="M472 448 c-18 -18 -15 -113 3 -128 32 -26 101 5 118 53 20 54 -80
116 -121 75z m96 -20 c7 -7 12 -26 12 -43 0 -42 -16 -55 -67 -55 l-43 0 0 55
0 55 43 0 c24 0 48 -5 55 -12z"/>
<path d="M500 384 c0 -30 2 -33 23 -25 33 12 35 47 3 53 -24 5 -26 2 -26 -28z
m40 1 c0 -8 -7 -15 -15 -15 -8 0 -15 7 -15 15 0 8 7 15 15 15 8 0 15 -7 15
-15z"/>
<path d="M632 448 c-7 -7 -12 -33 -12 -59 0 -38 5 -51 22 -63 32 -22 61 -20
86 7 41 44 20 153 -23 117 -8 -7 -15 -28 -15 -46 0 -19 -4 -34 -10 -34 -5 0
-10 15 -10 34 0 39 -20 62 -38 44z m30 -50 c2 -30 8 -43 18 -43 10 0 16 13 18
43 3 34 7 42 23 42 16 0 19 -7 19 -40 0 -65 -56 -103 -94 -64 -21 21 -22 104
-2 104 10 0 16 -14 18 -42z"/>
<path d="M792 437 c-31 -33 -29 -80 4 -106 30 -24 52 -26 88 -10 19 9 29 9 39
0 11 -9 17 -8 27 4 16 19 29 19 51 -1 11 -10 19 -12 24 -5 3 6 -1 11 -9 11 -9
0 -16 5 -16 10 0 6 -11 10 -25 10 -14 0 -25 -4 -25 -10 0 -5 -7 -10 -15 -10
-20 0 -19 9 5 64 26 63 51 62 75 -1 10 -27 22 -52 28 -58 6 -7 8 -5 4 5 -3 8
-11 32 -18 52 -16 49 -45 76 -66 62 -9 -5 -25 -34 -36 -63 -16 -41 -22 -49
-29 -37 -5 9 -22 16 -38 16 -23 0 -30 5 -30 19 0 14 5 18 20 14 10 -3 26 2 35
10 18 19 20 34 3 19 -7 -5 -24 -12 -38 -14 -20 -2 -25 -9 -25 -33 0 -28 2 -30
33 -27 34 2 46 -20 16 -32 -47 -18 -94 13 -94 63 0 35 19 52 68 62 l37 7 -36
1 c-25 1 -42 -6 -57 -22z"/>
<path d="M1075 435 c-14 -13 -25 -36 -25 -50 0 -32 41 -75 73 -75 13 0 32 6
42 14 27 19 13 46 -25 46 -20 0 -30 5 -30 15 0 9 9 15 24 15 24 0 54 26 42 37
-3 3 -6 1 -6 -5 0 -6 -15 -12 -32 -14 -26 -2 -34 -8 -36 -27 -4 -28 14 -42 45
-34 27 6 33 -21 7 -31 -28 -11 -44 -6 -69 19 -44 43 -25 92 41 105 39 8 39 8
6 9 -23 1 -41 -7 -57 -24z"/>
<path d="M1222 448 c-7 -7 -12 -35 -12 -63 0 -56 15 -82 37 -64 8 7 13 33 13
64 0 56 -17 84 -38 63z m28 -63 c0 -42 -3 -55 -15 -55 -12 0 -15 13 -15 55 0
42 3 55 15 55 12 0 15 -13 15 -55z"/>
<path d="M1472 448 c-15 -15 -16 -110 0 -126 14 -14 38 2 38 26 0 9 7 6 21
-12 17 -21 24 -24 40 -16 15 9 19 22 19 63 0 67 -30 104 -45 56 l-7 -21 -15
21 c-16 24 -33 27 -51 9z m61 -40 l16 -33 0 33 c1 21 6 32 16 32 12 0 15 -13
15 -55 0 -47 -3 -55 -19 -55 -11 0 -28 15 -40 33 l-21 32 0 -32 c0 -23 -5 -33
-15 -33 -12 0 -15 13 -15 55 0 51 2 55 23 55 16 0 28 -10 40 -32z"/>
<path d="M1723 445 c-7 -8 -13 -36 -13 -62 0 -37 5 -51 20 -61 17 -10 22 -9
32 8 7 11 18 20 24 20 17 0 44 35 44 58 0 42 -79 69 -107 37z m95 -38 c3 -24
-2 -30 -27 -40 -17 -6 -31 -17 -31 -24 0 -7 -7 -13 -15 -13 -12 0 -15 13 -15
56 l0 55 43 -3 c38 -3 42 -6 45 -31z"/>
<path d="M1760 405 c0 -8 7 -15 15 -15 8 0 15 4 15 9 0 5 -7 11 -15 15 -9 3
-15 0 -15 -9z"/>
<path d="M2032 448 c-7 -7 -12 -35 -12 -63 0 -28 5 -56 12 -63 36 -36 128 18
101 60 -4 7 -6 20 -5 30 6 34 -69 63 -96 36z m84 -39 c1 -14 4 -31 8 -38 13
-21 -15 -41 -55 -41 l-39 0 0 56 0 55 43 -3 c38 -3 42 -6 43 -29z"/>
<path d="M2060 410 c0 -6 7 -10 15 -10 8 0 15 2 15 4 0 2 -7 6 -15 10 -8 3
-15 1 -15 -4z"/>
<path d="M2060 360 c0 -5 7 -10 15 -10 8 0 15 5 15 10 0 6 -7 10 -15 10 -8 0
-15 -4 -15 -10z"/>
<path d="M2180 450 c0 -5 7 -10 15 -10 11 0 15 -12 15 -44 0 -42 1 -43 28 -37
25 5 25 6 5 9 -18 3 -23 10 -23 36 0 30 -15 56 -32 56 -4 0 -8 -4 -8 -10z"/>
<path d="M2302 448 c-7 -7 -12 -36 -12 -65 0 -41 4 -54 18 -62 28 -15 42 6 42
64 0 45 -12 75 -30 75 -3 0 -11 -5 -18 -12z m38 -63 c0 -48 -2 -55 -20 -55
-18 0 -20 7 -20 55 0 48 2 55 20 55 18 0 20 -7 20 -55z"/>
<path d="M2395 435 c-32 -31 -32 -69 0 -100 27 -28 62 -32 90 -11 27 19 13 46
-25 46 -20 0 -30 5 -30 15 0 9 9 15 24 15 33 0 53 25 36 45 -19 23 -68 18 -95
-10z m92 -2 c3 -7 -9 -13 -29 -15 -26 -2 -34 -8 -36 -27 -4 -28 14 -42 45 -34
17 4 23 1 23 -11 0 -20 -42 -31 -69 -17 -43 23 -50 88 -12 111 21 13 73 8 78
-7z"/>
<path d="M2558 443 c-8 -10 -23 -38 -32 -62 -13 -33 -14 -46 -5 -57 10 -12 15
-12 31 3 18 16 21 16 47 0 44 -26 56 -4 34 59 -25 73 -47 90 -75 57z m63 -58
c10 -27 19 -51 19 -52 0 -2 -9 -3 -20 -3 -11 0 -20 5 -20 10 0 6 -9 10 -19 10
-11 0 -23 -4 -26 -10 -3 -5 -13 -10 -21 -10 -16 0 -14 13 13 77 21 51 50 42
74 -22z"/>
<path d="M2163 385 c0 -33 2 -45 4 -27 2 18 2 45 0 60 -2 15 -4 0 -4 -33z"/>
<path d="M970 390 c0 -5 5 -10 11 -10 5 0 7 5 4 10 -3 6 -8 10 -11 10 -2 0 -4
-4 -4 -10z"/>
<path d="M2260 342 c0 -7 -16 -12 -41 -12 -24 0 -38 -4 -34 -10 10 -15 61 -12
75 5 7 9 10 18 6 22 -3 3 -6 1 -6 -5z"/>
</g>
</svg>
